<svg width="46" height="46" viewBox="0 0 46 46" fill="none" xmlns="http://www.w3.org/2000/svg">
<rect width="46" height="46" rx="8" fill="#212529"/>
<path d="M6 30.75V28.5844C6 27.599 6.50417 26.7969 7.5125 26.1781C8.52083 25.5594 9.85 25.25 11.5 25.25C11.7979 25.25 12.0844 25.256 12.3594 25.2679C12.6344 25.2798 12.8979 25.3082 13.15 25.3531C12.8292 25.8344 12.5885 26.3385 12.4281 26.8656C12.2677 27.3927 12.1875 27.9427 12.1875 28.5156V30.75H6ZM14.25 30.75V28.5156C14.25 27.7823 14.4508 27.1118 14.8523 26.504C15.2537 25.8963 15.8207 25.3637 16.5531 24.9063C17.2865 24.4479 18.1632 24.1042 19.1835 23.875C20.2038 23.6458 21.3092 23.5313 22.5 23.5313C23.7146 23.5313 24.832 23.6458 25.8522 23.875C26.8725 24.1042 27.7488 24.4479 28.4813 24.9063C29.2146 25.3646 29.776 25.8976 30.1656 26.5054C30.5552 27.1131 30.75 27.7832 30.75 28.5156V30.75H14.25ZM32.8125 30.75V28.5156C32.8125 27.9198 32.7378 27.3583 32.5884 26.8313C32.439 26.3042 32.2157 25.8115 31.9188 25.3531C32.1708 25.3073 32.4289 25.2789 32.6929 25.2679C32.9569 25.2569 33.2259 25.2509 33.5 25.25C35.15 25.25 36.4792 25.5539 37.4875 26.1616C38.4958 26.7694 39 27.577 39 28.5844V30.75H32.8125ZM11.5 23.875C10.7438 23.875 10.0961 23.6055 9.55712 23.0665C9.01812 22.5275 8.74908 21.8803 8.75 21.125C8.75 20.3458 9.0195 19.6927 9.5585 19.1656C10.0975 18.6385 10.7447 18.375 11.5 18.375C12.2792 18.375 12.9323 18.6385 13.4594 19.1656C13.9865 19.6927 14.25 20.3458 14.25 21.125C14.25 21.8813 13.9865 22.5289 13.4594 23.0679C12.9323 23.6069 12.2792 23.8759 11.5 23.875ZM33.5 23.875C32.7437 23.875 32.0961 23.6055 31.5571 23.0665C31.0181 22.5275 30.7491 21.8803 30.75 21.125C30.75 20.3458 31.0195 19.6927 31.5585 19.1656C32.0975 18.6385 32.7447 18.375 33.5 18.375C34.2792 18.375 34.9323 18.6385 35.4594 19.1656C35.9865 19.6927 36.25 20.3458 36.25 21.125C36.25 21.8813 35.9865 22.5289 35.4594 23.0679C34.9323 23.6069 34.2792 23.8759 33.5 23.875ZM22.5 22.5C21.3542 22.5 20.3802 22.099 19.5781 21.2969C18.776 20.4948 18.375 19.5208 18.375 18.375C18.375 17.2063 18.776 16.2263 19.5781 15.4353C20.3802 14.6442 21.3542 14.2491 22.5 14.25C23.6688 14.25 24.6487 14.6455 25.4397 15.4366C26.2308 16.2277 26.6259 17.2072 26.625 18.375C26.625 19.5208 26.2295 20.4948 25.4384 21.2969C24.6473 22.099 23.6678 22.5 22.5 22.5Z" fill="white"/>
</svg>
